<?xml version="1.0" encoding="UTF-8" standalone="no"?>
<svg width="58px" height="58px" viewBox="0 0 58 58" version="1.1" xmlns="http://www.w3.org/2000/svg" xmlns:xlink="http://www.w3.org/1999/xlink" xmlns:sketch="http://www.bohemiancoding.com/sketch/ns">
    <!-- Generator: Sketch 3.3.3 (12081) - http://www.bohemiancoding.com/sketch -->
    <title>Imported Layers</title>
    <desc>Created with Sketch.</desc>
    <defs></defs>
    <g id="Page-1" stroke="none" stroke-width="1" fill="none" fill-rule="evenodd" sketch:type="MSPage">
        <g id="Icons" sketch:type="MSLayerGroup" transform="translate(-11.000000, 0.000000)" fill="#FFFFFF">
            <path d="M20.77925,11.44725 C21.08525,11.74325 21.47925,11.89025 21.87425,11.89025 C22.28525,11.89025 22.69725,11.72925 23.00625,11.41025 C23.61125,10.78425 23.59425,9.78725 22.96825,9.18225 L18.68425,5.04025 C18.05825,4.43625 17.06125,4.45325 16.45725,5.07825 C15.85225,5.70325 15.86925,6.70025 16.49425,7.30525 L20.77925,11.44725 L20.77925,11.44725 Z M67.19725,49.79025 L51.22125,33.81525 C50.60625,33.19925 49.60925,33.19925 48.99425,33.81525 C48.37825,34.43025 48.37825,35.42725 48.99425,36.04225 L64.96925,52.01725 C65.31025,52.35825 65.31025,52.91225 64.97025,53.25225 L64.57925,53.64225 C64.24925,53.97225 63.67425,53.97225 63.34425,53.64225 L45.26025,35.55825 C44.64425,34.94325 43.64825,34.94325 43.03325,35.55825 C42.41725,36.17325 42.41725,37.17125 43.03325,37.78625 L61.11725,55.86925 C61.87725,56.63025 62.88725,57.04825 63.96225,57.04825 C65.03725,57.04825 66.04725,56.62925 66.80625,55.87025 L67.19725,55.48025 C68.76525,53.91125 68.76525,51.35925 67.19725,49.79025 L67.19725,49.79025 Z M42.83125,34.77125 C43.04225,34.50425 43.23525,34.20525 43.44125,33.85425 C43.73225,33.35525 44.33925,32.31825 44.76625,32.23325 C44.89925,32.20425 45.19625,32.29525 45.62925,32.62425 C45.87225,32.80925 46.15325,32.90825 46.43625,32.93425 C46.55025,32.95925 46.66525,32.97525 46.78025,32.97525 C47.18325,32.97525 47.58625,32.82125 47.89425,32.51425 L61.60725,18.80125 C63.96425,16.44325 66.35325,13.91825 67.39725,11.24325 C68.60525,8.14425 67.86125,5.21625 65.18425,2.54025 C64.56925,1.92425 63.57225,1.92425 62.95725,2.54025 L41.47325,24.02425 L32.11525,14.86325 C32.69225,12.14925 31.92425,9.30125 30.03225,7.34425 C30.00325,7.31025 29.98025,7.27425 29.94925,7.24225 L23.16725,0.46125 C22.55225,-0.15375 21.55625,-0.15375 20.94025,0.46125 C20.32525,1.07625 20.32525,2.07325 20.94025,2.68825 L27.69325,9.44125 C27.70225,9.45125 27.70925,9.46225 27.71825,9.47225 C29.07125,10.82525 29.52325,12.93125 28.86925,14.83825 C28.85825,14.87025 28.85625,14.90225 28.84725,14.93425 C28.83125,14.99225 28.81525,15.05025 28.80625,15.10925 C28.79825,15.15825 28.79625,15.20625 28.79325,15.25525 C28.79025,15.30725 28.78725,15.35925 28.78925,15.41125 C28.79125,15.46225 28.79825,15.51125 28.80525,15.56125 C28.81225,15.61225 28.81925,15.66325 28.83025,15.71325 C28.84225,15.76025 28.85825,15.80625 28.87325,15.85225 C28.89025,15.90225 28.90725,15.95225 28.92925,16.00025 C28.95025,16.04625 28.97525,16.08825 29.00025,16.13225 C29.02625,16.17625 29.05025,16.22025 29.08025,16.26225 C29.11425,16.30925 29.15225,16.35125 29.19125,16.39525 C29.21425,16.42125 29.23225,16.45025 29.25725,16.47425 L39.24525,26.25125 L37.64025,27.85725 L27.74625,18.21325 C27.66225,18.12525 27.56825,18.04925 27.46625,17.98425 C27.45925,17.98025 27.45225,17.97725 27.44525,17.97325 C27.36525,17.92325 27.28225,17.88025 27.19525,17.84525 C27.17925,17.83925 27.16225,17.83625 27.14525,17.83025 C27.06625,17.80125 26.98625,17.77725 26.90325,17.76125 C26.88625,17.75825 26.86825,17.75825 26.85025,17.75525 C26.76825,17.74325 26.68625,17.73425 26.60225,17.73525 C26.58225,17.73525 26.56225,17.73925 26.54225,17.74025 C26.46225,17.74325 26.38325,17.74925 26.30325,17.76525 C26.26425,17.77325 26.22725,17.78825 26.18925,17.79925 C26.13425,17.81525 26.07825,17.82525 26.02425,17.84825 C24.11025,18.62525 21.93025,18.18125 20.47025,16.72125 L13.68825,9.94025 C13.07325,9.32525 12.07725,9.32525 11.46125,9.94025 C10.84625,10.55525 10.84625,11.55225 11.46125,12.16725 L18.24225,18.94825 C19.82825,20.53425 21.93925,21.37625 24.09225,21.37625 C24.79325,21.37625 25.49825,21.27825 26.19125,21.09625 L35.41225,30.08425 L15.43225,50.06525 C14.67225,50.82525 14.25325,51.83525 14.25325,52.91025 C14.25325,53.98525 14.67225,54.99525 15.43225,55.75525 L15.82125,56.14525 C16.58125,56.90525 17.59225,57.32325 18.66625,57.32325 C19.74125,57.32325 20.75125,56.90525 21.51125,56.14525 L42.61925,35.03625 C42.70125,34.95425 42.77125,34.86525 42.83125,34.77125 L42.83125,34.77125 Z M40.72125,32.26425 C40.60425,32.46525 40.44425,32.73825 40.37325,32.82825 L19.28425,53.91725 C18.94425,54.25825 18.39125,54.25825 18.04925,53.91725 L17.65925,53.52825 C17.31825,53.18725 17.31825,52.63225 17.65925,52.29225 L63.97825,5.97325 C66.05825,9.00125 64.17625,11.77625 59.38025,16.57425 L46.47125,29.48325 C45.69025,29.12025 44.91425,28.99325 44.15225,29.14325 C42.33525,29.50425 41.36425,31.16525 40.72125,32.26425 L40.72125,32.26425 Z" id="Imported-Layers" sketch:type="MSShapeGroup"></path>
        </g>
    </g>
</svg>